<svg xmlns="http://www.w3.org/2000/svg" viewBox="0 0 24 24" fill="currentColor" aria-hidden="true"><path d="M12 2a10 10 0 1 0 0 20 10 10 0 0 0 0-20Zm6.93 9h-3.1a15.7 15.7 0 0 0-1.18-5.03A8.03 8.03 0 0 1 18.93 11ZM12 4.04c.83 1.2 1.55 3.16 1.78 6.96h-3.56c.23-3.8.95-5.76 1.78-6.96ZM4.07 13h3.1c.14 1.92.5 3.65 1.18 5.03A8.03 8.03 0 0 1 4.07 13Zm3.1-2h-3.1a8.03 8.03 0 0 1 4.28-5.03A15.7 15.7 0 0 0 7.17 11ZM12 19.96c-.83-1.2-1.55-3.16-1.78-6.96h3.56c-.23 3.8-.95 5.76-1.78 6.96Zm2.65-1.93c.68-1.38 1.04-3.11 1.18-5.03h3.1a8.03 8.03 0 0 1-4.28 5.03Z"/></svg>
